<svg width="80" height="80" viewBox="0 0 80 80" fill="none" xmlns="http://www.w3.org/2000/svg">
<path d="M16.6079 5.98389H63.3759C69.2479 5.98389 73.9999 10.7359 73.9999 16.6079V63.3919C73.9999 69.2639 69.2479 74.0159 63.3759 74.0159H16.6079C10.7359 74.0159 5.98389 69.2639 5.98389 63.3919V16.6239C5.98389 10.7359 10.7359 5.98389 16.6079 5.98389Z" fill="#330000"/>
<path d="M39.1518 47.3918H28.7678L26.6398 54.3198C26.5758 54.5598 26.3518 54.7358 26.0958 54.7198H20.8318C20.5278 54.7198 20.4318 54.5598 20.5118 54.2238L29.4718 28.3358C29.5678 28.0638 29.6478 27.7598 29.7438 27.4078C29.8718 26.9118 29.9198 26.3838 29.9198 25.8718C29.9038 25.7278 29.9998 25.5838 30.1598 25.5518C30.1918 25.5518 30.2078 25.5518 30.2398 25.5518H37.3918C37.5998 25.5518 37.7278 25.6318 37.7438 25.7758L47.9678 54.2558C48.0638 54.5598 47.9678 54.7038 47.6958 54.7038H41.8558C41.6478 54.7198 41.4558 54.5918 41.4078 54.3838L39.1518 47.3918ZM30.3358 42.6078H37.9518C37.7758 42.0158 37.1518 40.6238 36.9118 39.8718C36.6718 39.1198 36.3358 38.5278 36.0798 37.6798C35.8078 36.8318 35.5358 35.9678 35.2638 35.1198C34.9918 34.2718 34.7518 33.4398 34.5118 32.6398C34.2878 31.8398 34.0798 31.1198 33.9038 30.4638H33.8558C33.5998 31.6798 33.2798 32.8798 32.9118 34.0638C32.4958 35.4078 32.0638 36.7838 31.6318 38.1918C31.1998 39.6158 30.7518 41.4238 30.3358 42.6078Z" fill="#FF9A00"/>
<path d="M54.0799 30.2721C53.1519 30.3041 52.2559 29.9521 51.5999 29.2801C50.9599 28.5921 50.6239 27.6641 50.6559 26.7201C50.6239 25.7761 50.9919 24.8801 51.6639 24.2241C52.3359 23.5841 53.2319 23.2321 54.1599 23.2641C55.1039 23.2161 56.0319 23.5681 56.7039 24.2241C57.3279 24.8961 57.6639 25.7921 57.6319 26.7201C57.6639 27.6641 57.3279 28.5921 56.6719 29.2801C55.9839 29.9521 55.0399 30.3201 54.0799 30.2721ZM51.1679 54.2881V33.7441C51.1679 33.4721 51.2799 33.3441 51.5199 33.3441H56.6239C56.8639 33.3441 56.9759 33.4721 56.9759 33.7441V54.2881C56.9759 54.5921 56.8639 54.7361 56.6239 54.7361H51.5679C51.3119 54.7361 51.1679 54.5921 51.1679 54.2881Z" fill="#FF9A00"/>
</svg>
