<svg width="60" height="60" viewBox="0 0 60 60" fill="none" xmlns="http://www.w3.org/2000/svg">
<path d="M49.2 4.7998H10.8C7.48805 4.7998 4.80005 7.4878 4.80005 10.7998V49.1998C4.80005 52.5118 7.48805 55.1998 10.8 55.1998H49.2C52.512 55.1998 55.2 52.5118 55.2 49.1998V10.7998C55.2 7.4878 52.512 4.7998 49.2 4.7998ZM20.4 23.9998V46.7998H13.2V23.9998H20.4ZM13.2 17.3638C13.2 15.6838 14.64 14.3998 16.8 14.3998C18.96 14.3998 20.316 15.6838 20.4 17.3638C20.4 19.0438 19.056 20.3998 16.8 20.3998C14.64 20.3998 13.2 19.0438 13.2 17.3638ZM46.8 46.7998H39.6C39.6 46.7998 39.6 35.6878 39.6 34.7998C39.6 32.3998 38.4 29.9998 35.4 29.9518H35.304C32.4 29.9518 31.2 32.4238 31.2 34.7998C31.2 35.8918 31.2 46.7998 31.2 46.7998H24V23.9998H31.2V27.0718C31.2 27.0718 33.516 23.9998 38.172 23.9998C42.936 23.9998 46.8 27.2758 46.8 33.9118V46.7998Z" fill="#F4F1EA"/>
</svg>
