<svg width="45" height="45" viewBox="0 0 45 45" fill="none" xmlns="http://www.w3.org/2000/svg">
<path d="M16.6755 44.301V0H30.5061C33.0579 0 35.3034 0.555002 37.2428 1.66501C39.1821 2.73536 40.6962 4.32108 41.7849 6.42216C42.9077 8.48359 43.4691 10.9613 43.4691 13.8552C43.4691 16.9077 42.8056 19.5242 41.4787 21.7045C40.1858 23.8849 38.4336 25.4706 36.2221 26.4617L45.0001 44.301H38.1614L28.8219 24.9751L32.7517 27.651H22.6977V44.301H16.6755ZM22.6977 21.4072H30.6082C32.0031 21.4072 33.211 21.0901 34.2317 20.4558C35.2524 19.8215 36.0349 18.9493 36.5793 17.8393C37.1577 16.6897 37.4469 15.3418 37.4469 13.7957C37.4469 12.2497 37.1577 10.9216 36.5793 9.81163C36.0349 8.66199 35.2524 7.78984 34.2317 7.1952C33.211 6.56091 32.0031 6.24377 30.6082 6.24377H22.6977V21.4072Z" fill="#3F6F4A"/>
<path d="M22.6331 44.301V0H16.5633V38.0572H5.72205e-06V44.301H22.6331Z" fill="#5A3E7A"/>
</svg>
